<svg xmlns="http://www.w3.org/2000/svg" width="56.199" height="53.265" viewBox="0 0 56.199 53.265">
  <g id="human" transform="translate(0 -0.152)">
    <path id="Path_34" data-name="Path 34" d="M282.158,217.04a.924.924,0,0,1-.924-.924v-.352c0-1.08-1.541-2.139-3.111-2.139h-3.777a.924.924,0,0,1,0-1.847h3.777c2.345,0,4.958,1.638,4.958,3.987v.352a.923.923,0,0,1-.923.924Zm0,0" transform="translate(-236.422 -182.987)"/>
    <path id="Path_35" data-name="Path 35" d="M195.586,75.908c-.025,0-.051,0-.076,0a.924.924,0,0,1-.845-1l.462-5.639a5.7,5.7,0,0,0-5.49-5.834h-4.731a5.716,5.716,0,0,0-5.487,5.909l.458,5.563a.924.924,0,1,1-1.841.151l-.461-5.639a7.578,7.578,0,0,1,7.331-7.832h4.73a7.563,7.563,0,0,1,7.335,7.757l-.465,5.714a.924.924,0,0,1-.92.848Zm0,0" transform="translate(-153.544 -53.123)"/>
    <path id="Path_36" data-name="Path 36" d="M190.2,126.885a10.147,10.147,0,0,1-3.192-.51.924.924,0,0,1,.588-1.752,8.279,8.279,0,0,0,2.6.414,6.689,6.689,0,0,0,5.056-1.979,10.044,10.044,0,0,0,2.335-5.913v-3.723a1.193,1.193,0,0,0-.295-.96c-.7-.542-2.908.02-4.86.515a22.65,22.65,0,0,1-5.3.922,7.93,7.93,0,0,1-4.317-1.262c-.006.207-.01.464-.01.786v3.723a9.565,9.565,0,0,0,1.344,4.486.924.924,0,0,1-1.6.922,11.318,11.318,0,0,1-1.591-5.408v-3.723c0-1.571.035-2.479.766-2.882.652-.365,1.269.027,1.812.368a6.243,6.243,0,0,0,3.6,1.143,21.419,21.419,0,0,0,4.844-.865c2.7-.687,5.039-1.281,6.449-.183a2.885,2.885,0,0,1,1.008,2.419v3.723a11.845,11.845,0,0,1-2.767,7.1,8.436,8.436,0,0,1-6.47,2.639Zm0,0" transform="translate(-156.472 -95.324)"/>
    <path id="Path_37" data-name="Path 37" d="M305.631,260.935a.923.923,0,0,1-.2-1.825l10.963-2.455a1.408,1.408,0,0,0,.938-.577,1.376,1.376,0,0,0,.23-1.035,1.394,1.394,0,0,0-.885-1.062.924.924,0,1,1,.641-1.732,3.247,3.247,0,0,1,2.064,2.475,3.234,3.234,0,0,1-2.627,3.743l-10.921,2.446A.953.953,0,0,1,305.631,260.935Zm0,0" transform="translate(-263.474 -217.931)"/>
    <path id="Path_38" data-name="Path 38" d="M74.537,213.472H67.519a.916.916,0,0,1-.2-.022L59.005,211.6a.924.924,0,0,1,.4-1.8l8.216,1.826h6.916a16,16,0,0,0,9.957-3.493.853.853,0,0,1,.077-.055l13.673-8.792a.9.9,0,0,1,.139-.074,1.386,1.386,0,0,0-1.082-2.552l-13.726,5.659a.924.924,0,0,1-.352.069H65.672a.923.923,0,0,1-.792-1.4l2.771-4.619a.924.924,0,0,1,.792-.448h3.7a3.7,3.7,0,0,0,3.578-2.771H65.974l-12.6,9.242A.924.924,0,0,1,52.28,200.9l12.846-9.42a.921.921,0,0,1,.546-.179H76.757a.924.924,0,0,1,.924.924,5.549,5.549,0,0,1-5.543,5.543H68.967L67.3,200.539H83.041l13.548-5.585a3.234,3.234,0,0,1,2.595,5.924L85.611,209.6a17.861,17.861,0,0,1-11.074,3.867Zm0,0" transform="translate(-44.878 -165.282)"/>
    <path id="Path_39" data-name="Path 39" d="M10,273.958a.921.921,0,0,1-.75-.383L.175,260.992a.924.924,0,0,1,.209-1.29l5.994-4.321a.927.927,0,0,1,1.29.209l9.071,12.582a.924.924,0,0,1-.209,1.29l-5.994,4.322a.927.927,0,0,1-.54.174Zm-7.782-13.3L10.2,271.745l4.5-3.241L6.71,257.419Zm0,0" transform="translate(0 -220.541)"/>
    <path id="Path_40" data-name="Path 40" d="M68.605,336.5a1.847,1.847,0,1,1-1.847-1.848A1.848,1.848,0,0,1,68.605,336.5Zm0,0" transform="translate(-56.126 -289.239)"/>
    <path id="Path_41" data-name="Path 41" d="M243.326,5.695a.923.923,0,0,1-.924-.923v-3.7a.924.924,0,0,1,1.847,0v3.7A.923.923,0,0,1,243.326,5.695Zm0,0" transform="translate(-209.599)"/>
    <path id="Path_42" data-name="Path 42" d="M270.633,8.645a.924.924,0,0,1-.653-1.577l3.233-3.233a.924.924,0,0,1,1.306,1.307l-3.233,3.233a.92.92,0,0,1-.653.271Zm0,0" transform="translate(-233.212 -2.95)"/>
    <path id="Path_43" data-name="Path 43" d="M198.311,11.6a.918.918,0,0,1-.653-.271l-2.771-2.771a.924.924,0,0,1,1.306-1.306l2.771,2.771a.924.924,0,0,1-.653,1.577Zm0,0" transform="translate(-168.28 -5.902)"/>
  </g>
</svg>
