<svg id="key" xmlns="http://www.w3.org/2000/svg" width="54.915" height="54.915" viewBox="0 0 54.915 54.915">
  <g id="Group_6" data-name="Group 6" transform="translate(6.864 37.068)">
    <g id="Group_5" data-name="Group 5">
      <path id="Path_44" data-name="Path 44" d="M69.492,345.6a5.492,5.492,0,1,0,5.492,5.492A5.5,5.5,0,0,0,69.492,345.6Zm0,8.237a2.746,2.746,0,1,1,2.746-2.746A2.746,2.746,0,0,1,69.492,353.837Z" transform="translate(-64 -345.6)"/>
    </g>
  </g>
  <g id="Group_8" data-name="Group 8" transform="translate(0 0)">
    <g id="Group_7" data-name="Group 7">
      <path id="Path_45" data-name="Path 45" d="M52.169,0H46.678a2.742,2.742,0,0,0-1.941.8L22.44,23.1a16.528,16.528,0,1,0,9.374,9.374l4.335-4.335a2.743,2.743,0,0,0,.794-2.169l-.24-2.884.571-.595,1.457.624a2.744,2.744,0,0,0,3.023-.582l1.659-1.659a2.744,2.744,0,0,0,.8-1.984l-.014-.872h.929a2.745,2.745,0,0,0,2.745-2.778l-.026-2.2h2.256a2.742,2.742,0,0,0,1.941-.8l2.059-2.059a2.734,2.734,0,0,0,.806-1.94V2.746A2.746,2.746,0,0,0,52.169,0ZM16.475,52.169A13.729,13.729,0,1,1,30.2,38.441,13.729,13.729,0,0,1,16.475,52.169ZM52.169,8.237,50.11,10.3H45.076l.057,4.977H41.415l.058,3.661-1.659,1.658-3.2-1.373-2.746,2.86.343,4.119-3.683,3.683a16.581,16.581,0,0,0-5.492-5.492L46.678,2.746h5.492V8.237Z" transform="translate(0 0)"/>
    </g>
  </g>
</svg>
