<svg xmlns="http://www.w3.org/2000/svg" width="33.999" height="34" viewBox="0 0 33.999 34">
  <path id="Exclusion_2" data-name="Exclusion 2" d="M17,34A17,17,0,0,1,4.979,4.979,17,17,0,0,1,29.02,29.021,16.889,16.889,0,0,1,17,34Zm.517-24.924a6.489,6.489,0,0,0-6.482,6.482c0,1.475,1.016,3.631,3.02,6.408,1.478,2.049,2.921,3.646,2.935,3.662l.527.585.527-.585c.014-.016,1.457-1.613,2.935-3.662,2-2.777,3.02-4.933,3.02-6.408A6.49,6.49,0,0,0,17.517,9.077Zm0,15h0c-.845-.988-5.062-6.045-5.062-8.517a5.063,5.063,0,0,1,10.125,0c0,2.471-4.216,7.528-5.062,8.517Zm0-10.869a2.352,2.352,0,1,0,2.352,2.352A2.354,2.354,0,0,0,17.517,13.207Z" fill="#fff"/>
</svg>
