<svg xmlns="http://www.w3.org/2000/svg" width="26.446" height="21" viewBox="0 0 26.446 21">
  <path id="_" data-name="îº" d="M14.733,20H.611a.488.488,0,0,1-.458-.28A1.312,1.312,0,0,1,0,19.084V17.3a1.351,1.351,0,0,1,.153-.674.444.444,0,0,1,.382-.267H14.58a.538.538,0,0,1,.433.153,1.571,1.571,0,0,1,.229.61v2.138a1.613,1.613,0,0,1-.127.408C15,19.889,14.868,20,14.733,20Zm6.87-5.445H.916a.877.877,0,0,1-.738-.331A.963.963,0,0,1,0,13.664V11.806a.928.928,0,0,1,.229-.623.714.714,0,0,1,.56-.267H21.476a.92.92,0,0,1,.572.166.986.986,0,0,1,.319.547l.025.025v2.163a1.459,1.459,0,0,1-.319.547A.642.642,0,0,1,21.6,14.555ZM10.661,9.11H.407c-.1,0-.186-.069-.254-.2A1.807,1.807,0,0,1,0,8.372V6.386a1.733,1.733,0,0,1,.1-.635c.068-.17.162-.264.28-.28H10.636a.3.3,0,0,1,.255.165,1.81,1.81,0,0,1,.178.547V8.346a1.893,1.893,0,0,1-.153.56C10.849,9.041,10.763,9.11,10.661,9.11ZM24.555,3.639H.941a.915.915,0,0,1-.61-.216A.863.863,0,0,1,.025,2.9.643.643,0,0,1,0,2.7V.967A.951.951,0,0,1,.216.331.9.9,0,0,1,.788.025L.84,0H24.606a1.714,1.714,0,0,1,.432.153,1.155,1.155,0,0,1,.408.61V2.9a1.185,1.185,0,0,1-.369.547A.831.831,0,0,1,24.555,3.639Z" transform="translate(0.5 0.5)" stroke="rgba(0,0,0,0)" stroke-width="1"/>
</svg>
