<svg xmlns="http://www.w3.org/2000/svg" width="33.999" height="34" viewBox="0 0 33.999 34">
  <path id="Exclusion_1" data-name="Exclusion 1" d="M17,34A17,17,0,0,1,4.979,4.979,17,17,0,0,1,29.02,29.021,16.889,16.889,0,0,1,17,34Zm2.409-15.919h0l-1.327,1.327,2.434,2.434-1.549,1.549h4.425V18.967l-1.549,1.549-2.434-2.434ZM11,18.967v4.425h4.426l-1.55-1.549,2.435-2.434-1.328-1.327-2.434,2.434ZM18.967,11l1.549,1.549-2.434,2.434,1.327,1.328,2.434-2.435,1.549,1.55V11Zm-6.418,2.876h0l2.434,2.434,1.328-1.328-2.435-2.434L15.426,11H11v4.426l1.548-1.549Z" fill="#fff"/>
</svg>
