<svg xmlns="http://www.w3.org/2000/svg" width="56.415" height="60" viewBox="0 0 56.415 60">
  <g id="stopwatch" transform="translate(-1.793)">
    <path id="Path_24" data-name="Path 24" d="M31.634,37.989A3.558,3.558,0,0,0,34.24,36.53L43.6,23.586a1,1,0,0,0-1.4-1.4L29.26,31.555A3.564,3.564,0,0,0,31.354,38C31.447,38,31.54,38,31.634,37.989ZM29.8,34.315a1.56,1.56,0,0,1,.637-1.142l7.9-5.713-5.711,7.895a1.563,1.563,0,0,1-2.823-1.04Z"/>
    <path id="Path_25" data-name="Path 25" d="M54.034,19.564c-.01-.021-.01-.043-.021-.064s-.031-.031-.044-.05A27.185,27.185,0,0,0,50.4,14.641l2.148-2.147,1.414,1.414,4.242-4.243L53.966,5.423,49.723,9.665l1.415,1.415L48.99,13.227a27.154,27.154,0,0,0-4.809-3.566c-.019-.013-.03-.032-.05-.044s-.043-.011-.064-.022a26.811,26.811,0,0,0-10.273-3.4V5h1.5a2.5,2.5,0,1,0,0-5h-9a2.5,2.5,0,0,0,0,5h1.5V6.156a27.5,27.5,0,0,0-3.224.535,1,1,0,0,0,.447,1.949,25.431,25.431,0,0,1,2.78-.477l1.073-.083c.328-.025.63-.043.924-.057V10a1,1,0,0,0,2,0V8.03a24.805,24.805,0,0,1,10.456,2.845l-.986,1.707a1,1,0,1,0,1.732,1l.983-1.7a25.194,25.194,0,0,1,7.772,7.772l-1.7.983a1,1,0,0,0,1,1.732l1.707-.986A24.819,24.819,0,0,1,55.6,32H53.63a1,1,0,0,0,0,2H55.6a24.819,24.819,0,0,1-2.849,10.619l-1.707-.986a1,1,0,1,0-1,1.732l1.7.983a25.194,25.194,0,0,1-7.772,7.772L43,52.416a1,1,0,0,0-1.732,1l.986,1.707a24.805,24.805,0,0,1-10.456,2.845V56a1,1,0,0,0-2,0v1.976a25.235,25.235,0,0,1-4.776-.617,1,1,0,1,0-.447,1.949A27.021,27.021,0,0,0,30.63,60c.049,0,.1,0,.145,0,.007,0,.012,0,.018,0s.015-.005.023-.005a26.825,26.825,0,0,0,13.219-3.573.847.847,0,0,0,.094-.039c.02-.012.031-.031.05-.044a27.2,27.2,0,0,0,9.773-9.761.946.946,0,0,0,.06-.078c.012-.021.011-.043.021-.064a26.9,26.9,0,0,0,0-26.872ZM53.965,8.251l1.414,1.414L53.965,11.08,52.55,9.665ZM29.793,6.021V3h-3.5a.5.5,0,0,1,0-1h9a.5.5,0,0,1,0,1h-3.5V6.021c-.348-.014-.68-.021-1-.021L30.7,6,30.63,6c-.164,0-.328.011-.492.014C30.022,6.017,29.913,6.016,29.793,6.021Z"/>
    <path id="Path_26" data-name="Path 26" d="M21.793,14h-5a1,1,0,0,0,0,2h5a1,1,0,0,0,0-2Z"/>
    <path id="Path_27" data-name="Path 27" d="M21.793,21h-10a1,1,0,0,0,0,2h10a1,1,0,0,0,0-2Z"/>
    <path id="Path_28" data-name="Path 28" d="M21.793,28h-15a1,1,0,0,0,0,2h15a1,1,0,0,0,0-2Z"/>
    <path id="Path_29" data-name="Path 29" d="M21.793,35h-19a1,1,0,0,0,0,2h19a1,1,0,0,0,0-2Z"/>
    <path id="Path_30" data-name="Path 30" d="M21.793,42h-13a1,1,0,0,0,0,2h13a1,1,0,0,0,0-2Z"/>
    <path id="Path_31" data-name="Path 31" d="M21.793,49h-7a1,1,0,1,0,0,2h7a1,1,0,0,0,0-2Z"/>
  </g>
</svg>
