<svg xmlns="http://www.w3.org/2000/svg" width="56.601" height="56.991" viewBox="0 0 56.601 56.991">
  <g id="work" transform="translate(-1.751)">
    <g id="Group_2" data-name="Group 2" transform="translate(28.274 0)">
      <g id="Group_1" data-name="Group 1" transform="translate(0 0)">
        <path id="Path_32" data-name="Path 32" d="M268.332,5.188l-3.425-3.425a6.257,6.257,0,0,0-8.389-.289L250.5,6.691a.969.969,0,0,0-.2.233l-5.859,9.759-3.762,1.254a.967.967,0,0,0-.378,1.6L250.558,29.79a.967.967,0,0,0,1.6-.378l1.254-3.763,9.9-5.98a.966.966,0,0,0,.232-.2l5.094-5.9A6.263,6.263,0,0,0,268.332,5.188Zm-1.155,7.12-4.993,5.786-10.076,6.084a.966.966,0,0,0-.417.522l-.872,2.617-2.31-2.31h0l-3.418-3.417h0l-2.31-2.31L245.4,18.4a.967.967,0,0,0,.523-.419l5.964-9.934,5.9-5.116a4.293,4.293,0,0,1,5.756.2l3.425,3.425A4.3,4.3,0,0,1,267.178,12.308Z" transform="translate(-240.023 0)"/>
      </g>
    </g>
    <g id="Group_4" data-name="Group 4" transform="translate(1.752 1.784)">
      <g id="Group_3" data-name="Group 3" transform="translate(0)">
        <path id="Path_33" data-name="Path 33" d="M53.843,53.079a10.636,10.636,0,0,0-10.8-2.6L22.5,29.939a10.636,10.636,0,0,0-14-13.181.967.967,0,0,0-.331,1.583l6.149,6.149-4.1,4.1L4.069,22.442a.967.967,0,0,0-1.583.331,10.636,10.636,0,0,0,13.181,14l7.681,7.681-9.566,9.566L7.7,57.422a.967.967,0,0,0-.393.411L4.571,63.3a.967.967,0,0,0,.181,1.116L8.17,67.835a.967.967,0,0,0,1.116.181l5.468-2.734a.967.967,0,0,0,.411-.393l3.4-6.084,9.566-9.566,8.077,8.077a10.636,10.636,0,0,0,14,13.181.967.967,0,0,0,.331-1.583l-6.149-6.149,4.1-4.1,6.149,6.149a.967.967,0,0,0,1.583-.331A10.637,10.637,0,0,0,53.843,53.079ZM17.1,57.533a.965.965,0,0,0-.16.212l-3.322,5.941L9.044,65.975,6.612,63.543,8.9,58.964l5.941-3.322a.965.965,0,0,0,.212-.16l9.661-9.661,2.05,2.05ZM54.859,62.3l-5.683-5.683a.967.967,0,0,0-1.367,0l-5.468,5.468a.967.967,0,0,0,0,1.367l5.683,5.683a8.7,8.7,0,0,1-9.8-11.713.967.967,0,0,0-.216-1.036L16.6,34.974a.967.967,0,0,0-1.036-.216,8.7,8.7,0,0,1-11.713-9.8l5.683,5.683a.967.967,0,0,0,1.367,0l5.468-5.468a.967.967,0,0,0,0-1.367l-5.683-5.683a8.7,8.7,0,0,1,9.8,11.713.967.967,0,0,0,.216,1.036L42.109,52.281a.967.967,0,0,0,1.036.216,8.7,8.7,0,0,1,11.713,9.8Z" transform="translate(-1.752 -16.024)"/>
      </g>
    </g>
  </g>
</svg>
