<svg xmlns="http://www.w3.org/2000/svg" width="65.277" height="35.898" viewBox="0 0 65.277 35.898">
  <g id="Group_11" data-name="Group 11" transform="translate(-2566.713 -6789.308)">
    <path id="Path_2" data-name="Path 2" d="M24.911,27.819H22.367a6.406,6.406,0,0,0-5.187,2.138,8.614,8.614,0,0,0-1.8,5.757V46.972H9.05V22.033h4.24L14,27.42q3.043-5.736,9.876-5.7h1.047Z" transform="translate(2557.663 6777.25)"/>
    <path id="Path_4" data-name="Path 4" d="M94.837,17.786q5.294,0,8.08,3.271t2.793,8.85V43.074H99.376V30.305q0-6.413-5.536-6.413a5.6,5.6,0,0,0-4.389,1.724A7.557,7.557,0,0,0,87.9,30.826V43.074H81.57V8.16H87.9V20.729Q90.206,17.793,94.837,17.786Z" transform="translate(2514.24 6781.148)"/>
    <path id="Path_14" data-name="Path 14" d="M540.618,48.2a3.65,3.65,0,0,1,3.66,3.726,3.48,3.48,0,0,1-1.074,2.585,3.533,3.533,0,0,1-2.586,1.056,3.607,3.607,0,0,1-2.635-1.056,3.513,3.513,0,0,1-1.074-2.585,3.568,3.568,0,0,1,1.074-2.632A3.623,3.623,0,0,1,540.618,48.2Z" transform="translate(2046.841 6769.639)" fill="#D0021B"/>
    <path id="Path_46" data-name="Path 46" d="M540.618,48.2a3.65,3.65,0,0,1,3.66,3.726,3.48,3.48,0,0,1-1.074,2.585,3.533,3.533,0,0,1-2.586,1.056,3.607,3.607,0,0,1-2.635-1.056,3.513,3.513,0,0,1-1.074-2.585,3.568,3.568,0,0,1,1.074-2.632A3.623,3.623,0,0,1,540.618,48.2Z" transform="translate(2087.71 6769.639)" fill="#D0021B"/>
  </g>
</svg>
