<svg xmlns="http://www.w3.org/2000/svg" width="231.964" height="21.339" viewBox="0 0 231.964 21.339">
  <g id="Монтажная_область_4" data-name="Монтажная область 4" transform="translate(-9.05 -8.16)">
    <path id="Path_1" data-name="Path 1" d="M501.923,21.709a7.752,7.752,0,0,1,7.75,7.755,7.72,7.72,0,0,1-7.755,7.72,7.7,7.7,0,0,1-7.72-7.72,7.759,7.759,0,0,1,7.725-7.755Zm2.731,4.838a3.895,3.895,0,0,0-6.622,2.912,3.893,3.893,0,1,0,6.622-2.912Z" transform="translate(-276.139 -7.711)"/>
    <path id="Path_2" data-name="Path 2" d="M18.64,25.408H17.1A3.874,3.874,0,0,0,13.966,26.7a5.208,5.208,0,0,0-1.086,3.481v6.807H9.05V21.909h2.563l.431,3.257a6.222,6.222,0,0,1,5.971-3.447h.633Z" transform="translate(0 -7.718)"/>
    <path id="Path_3" data-name="Path 3" d="M45.048,21.67a6.664,6.664,0,0,1,6.635,4.071,6.432,6.432,0,0,1,.513,2.4,6.126,6.126,0,0,1-.271,2.335H41.4A2.792,2.792,0,0,0,42.472,32.8a4.157,4.157,0,0,0,2.667.862,9.805,9.805,0,0,0,4.554-1.077l2.021,2.2a10.882,10.882,0,0,1-6.574,2.352,7.436,7.436,0,0,1-5.549-2.184,7.6,7.6,0,0,1-2.154-5.536,7.755,7.755,0,0,1,2.094-5.527A7.23,7.23,0,0,1,45.048,21.67Zm0,3.5a3.554,3.554,0,0,0-2.456.862,2.865,2.865,0,0,0-1.038,2.033h6.893a2.124,2.124,0,0,0-.362-1.206A3.155,3.155,0,0,0,45.048,25.168Z" transform="translate(-16.155 -7.69)"/>
    <path id="Path_4" data-name="Path 4" d="M89.592,13.98a6.062,6.062,0,0,1,4.885,1.977,8,8,0,0,1,1.689,5.351V29.27h-3.83V21.55q0-3.877-3.347-3.877a3.386,3.386,0,0,0-2.654,1.043,4.569,4.569,0,0,0-.935,3.149V29.27H81.57V8.16H85.4v7.6A5.009,5.009,0,0,1,89.592,13.98Z" transform="translate(-41.277)"/>
    <path id="Path_5" data-name="Path 5" d="M132.705,21.669a7.781,7.781,0,0,1,7.75,7.768,7.72,7.72,0,0,1-7.755,7.72,7.671,7.671,0,0,1-7.7-7.737,7.722,7.722,0,0,1,7.707-7.75Z" transform="translate(-65.995 -7.689)" fill="#D0021B"/>
    <path id="Path_6" data-name="Path 6" d="M184.858,37.239h-2.585L182,34.886a5.537,5.537,0,0,1-5.17,2.563,6.116,6.116,0,0,1-4.9-1.973,8.006,8.006,0,0,1-1.723-5.355V22.16h3.83v7.72q0,3.877,3.378,3.877a3.347,3.347,0,0,0,2.624-1.038,4.592,4.592,0,0,0,.935-3.154V22.16h3.83Z" transform="translate(-91.73 -7.969)"/>
    <path id="Path_7" data-name="Path 7" d="M220.237,21.666h.241a8.7,8.7,0,0,1,3.571.754,6.768,6.768,0,0,1,2.7,2.051L224.6,26.491a5.079,5.079,0,0,0-1.883-1.292,5.747,5.747,0,0,0-2.189-.5h-.241a3.373,3.373,0,0,0-1.689.431,1.219,1.219,0,0,0-.633,1.086.991.991,0,0,0,.56.935,5.42,5.42,0,0,0,1.943.431l1.025.121q5.575.392,5.579,4.7a4.188,4.188,0,0,1-1.659,3.395,6.8,6.8,0,0,1-4.4,1.34h-.151a11.05,11.05,0,0,1-4.192-.8,6.462,6.462,0,0,1-2.9-2.1l2.154-2.051A4.963,4.963,0,0,0,218,33.487a8.048,8.048,0,0,0,2.8.526h.151q2.262,0,2.262-1.478a1.224,1.224,0,0,0-.6-1.176,5.411,5.411,0,0,0-1.99-.452l-.862-.09q-5.665-.483-5.67-4.373a4.08,4.08,0,0,1,1.749-3.5A7.427,7.427,0,0,1,220.237,21.666Z" transform="translate(-116.524 -7.685)"/>
    <path id="Path_8" data-name="Path 8" d="M259.943,21.67a6.664,6.664,0,0,1,6.635,4.071,6.432,6.432,0,0,1,.513,2.4,6.3,6.3,0,0,1-.271,2.335H256.3a2.8,2.8,0,0,0,1.06,2.322,4.179,4.179,0,0,0,2.671.862,9.819,9.819,0,0,0,4.562-1.077l2.02,2.2a10.891,10.891,0,0,1-6.574,2.352,7.427,7.427,0,0,1-5.549-2.184,7.6,7.6,0,0,1-2.154-5.536,7.755,7.755,0,0,1,2.081-5.532A7.248,7.248,0,0,1,259.943,21.67Zm0,3.5a3.567,3.567,0,0,0-2.46.862,2.856,2.856,0,0,0-1.038,2.021h6.893a2.124,2.124,0,0,0-.362-1.206A3.147,3.147,0,0,0,259.943,25.168Z" transform="translate(-138.472 -7.69)"/>
    <path id="Path_9" data-name="Path 9" d="M324.145,21.667h.241a8.7,8.7,0,0,1,3.571.754,6.768,6.768,0,0,1,2.7,2.051L328.5,26.492a5.1,5.1,0,0,0-1.887-1.292,5.712,5.712,0,0,0-2.184-.5h-.241a3.36,3.36,0,0,0-1.689.431,1.219,1.219,0,0,0-.633,1.086,1,1,0,0,0,.556.935,5.476,5.476,0,0,0,1.947.431l1.025.121q5.579.392,5.6,4.7a4.2,4.2,0,0,1-1.659,3.395,6.808,6.808,0,0,1-4.4,1.34h-.151a11.033,11.033,0,0,1-4.192-.8,6.423,6.423,0,0,1-2.9-2.1l2.154-2.051a4.907,4.907,0,0,0,2.081,1.292,8.048,8.048,0,0,0,2.787.543h.151q2.262,0,2.262-1.478a1.223,1.223,0,0,0-.6-1.176,5.458,5.458,0,0,0-1.99-.452l-.862-.09q-5.674-.483-5.669-4.373a4.08,4.08,0,0,1,1.749-3.5A7.414,7.414,0,0,1,324.145,21.667Z" transform="translate(-175.679 -7.686)"/>
    <path id="Path_10" data-name="Path 10" d="M362.048,19.176V30.545H358.17V19.176h-1.96V15.466h1.96V10.4h3.877v5.066h1.96v3.709Z" transform="translate(-197.598 -1.275)"/>
    <path id="Path_11" data-name="Path 11" d="M397.7,37.239h-2.563l-.271-2.352a5.537,5.537,0,0,1-5.17,2.563,6.121,6.121,0,0,1-4.9-1.973,7.923,7.923,0,0,1-1.7-5.355V22.16h3.839v7.72q0,3.877,3.378,3.877A3.347,3.347,0,0,0,392.96,32.7a4.611,4.611,0,0,0,.935-3.154V22.16h3.8Z" transform="translate(-212.898 -7.969)"/>
    <path id="Path_12" data-name="Path 12" d="M441.665,29.27H439.1l-.211-2.154a6.031,6.031,0,0,1-5.006,2.322,6.923,6.923,0,0,1-5.265-2.232,7.716,7.716,0,0,1-2.094-5.489,7.755,7.755,0,0,1,2.094-5.5,6.893,6.893,0,0,1,5.265-2.249,5,5,0,0,1,3.951,1.689V8.16h3.83Zm-7.419-3.515a3.877,3.877,0,0,0,3.877-4.011,3.893,3.893,0,1,0-7.781,0,3.877,3.877,0,0,0,1.146,2.9A3.782,3.782,0,0,0,434.247,25.754Z" transform="translate(-237.62)"/>
    <path id="Path_13" data-name="Path 13" d="M476.216,13.739a2.3,2.3,0,0,1-1.585-.573,1.87,1.87,0,0,1,0-2.835,2.3,2.3,0,0,1,1.585-.573,2.335,2.335,0,0,1,1.611.573,1.87,1.87,0,0,1,0,2.835A2.335,2.335,0,0,1,476.216,13.739Zm-1.9,16.436V15.1h3.83V30.175Z" transform="translate(-264.632 -0.909)"/>
    <path id="Path_14" data-name="Path 14" d="M539.2,48.2a2.322,2.322,0,0,1,1.6.59,1.87,1.87,0,0,1,.663,1.478A1.84,1.84,0,0,1,540.8,51.7a2.318,2.318,0,0,1-1.6.586,2.369,2.369,0,0,1-1.628-.586,1.857,1.857,0,0,1-.664-1.435,1.883,1.883,0,0,1,.664-1.46A2.374,2.374,0,0,1,539.2,48.2Z" transform="translate(-300.45 -22.789)"/>
  </g>
</svg>
